<svg width="335" height="312" viewBox="0 0 335 312" fill="none" xmlns="http://www.w3.org/2000/svg">
<path d="M335 118.42L241.816 205.644L194.07 154.969L287.252 67.7449L335 118.42Z" fill="#3F467B"/>
<path d="M286.887 75.9158L202.249 155.195L242.007 197.388L326.646 118.109L286.887 75.9158Z" stroke="#FCFFFD" stroke-miterlimit="10"/>
<path d="M286.787 79.1714L205.515 155.296L242.109 194.131L323.379 118.007L286.787 79.1714Z" stroke="#FCFFFD" stroke-width="0.5" stroke-miterlimit="10"/>
<path d="M249.364 131.781L254.447 124.256L256.602 122.26L274.007 140.687L276.473 138.384L280.94 143.144L270.774 152.665L266.307 147.905L269.079 145.294L256.141 131.474L252.442 134.852L249.364 131.781Z" fill="#FCFFFD"/>
<path d="M227.8 155.123C223.179 159.576 222.871 166.794 227.337 171.554C231.804 176.314 239.043 176.468 243.818 172.014C248.592 167.561 248.747 160.344 244.28 155.583C239.813 150.976 232.42 150.823 227.8 155.123ZM233.652 163.415C233.96 163.415 234.422 163.261 235.038 163.108C236.117 162.647 237.041 162.494 237.657 162.494C238.427 162.494 239.043 162.801 239.659 163.415C240.275 164.029 240.583 164.643 240.429 165.411C240.429 166.179 240.121 166.794 239.505 167.561L240.429 168.636L239.505 169.404L238.581 168.329C237.811 168.943 237.041 169.251 236.271 169.251C235.5 169.251 234.73 168.79 233.96 168.022L235.5 166.486C235.963 166.947 236.425 167.254 236.733 167.254C237.195 167.254 237.503 167.1 237.811 166.794C238.119 166.486 238.273 166.179 238.273 165.872C238.273 165.565 238.119 165.258 237.811 164.951C237.503 164.643 237.195 164.49 236.887 164.49C236.579 164.49 236.117 164.49 235.5 164.797C234.422 165.258 233.498 165.565 232.882 165.565C232.112 165.565 231.496 165.258 230.88 164.643C230.264 164.029 229.956 163.415 230.11 162.647C230.11 161.879 230.418 161.265 231.034 160.497L229.956 159.422L230.88 158.654L231.958 159.883C232.728 159.422 233.498 159.115 234.114 159.269C234.884 159.422 235.654 159.729 236.271 160.497L234.73 162.033C234.268 161.572 233.96 161.419 233.498 161.265C233.19 161.265 232.728 161.265 232.42 161.572C232.112 161.879 231.958 162.186 231.958 162.494C231.958 162.801 232.112 163.108 232.42 163.415C233.036 163.261 233.344 163.415 233.652 163.415Z" fill="#FCFFFD"/>
<path d="M285.097 101.375C280.479 105.829 280.169 113.046 284.635 117.807C289.102 122.413 296.341 122.721 301.117 118.267C305.89 113.814 306.045 106.596 301.579 101.836C297.112 97.2291 289.719 97.0756 285.097 101.375ZM291.106 109.668C291.413 109.668 291.874 109.514 292.491 109.361C293.569 108.9 294.495 108.746 295.108 108.746C295.879 108.746 296.496 109.053 297.112 109.668C297.729 110.282 298.035 110.896 297.884 111.664C297.884 112.432 297.574 113.046 296.957 113.814L297.884 114.889L296.957 115.657L296.034 114.582C295.263 115.196 294.495 115.503 293.724 115.503C292.952 115.503 292.184 115.042 291.413 114.275L292.952 112.739C293.414 113.2 293.879 113.507 294.185 113.507C294.646 113.507 294.957 113.353 295.263 113.046C295.573 112.739 295.724 112.432 295.724 112.125C295.724 111.818 295.573 111.51 295.263 111.203C294.957 110.896 294.647 110.743 294.34 110.743C294.03 110.743 293.569 110.743 292.952 111.05C291.874 111.51 290.951 111.818 290.335 111.818C289.563 111.818 288.947 111.51 288.334 110.896C287.718 110.282 287.408 109.668 287.563 108.9C287.563 108.132 287.869 107.518 288.486 106.75L287.408 105.675L288.334 104.907L289.412 106.136C290.18 105.675 290.951 105.368 291.568 105.522C292.336 105.675 293.107 105.982 293.724 106.75L292.184 108.286C291.723 107.825 291.413 107.671 290.951 107.518C290.641 107.518 290.18 107.518 289.874 107.825C289.563 108.132 289.412 108.439 289.412 108.746C289.412 109.053 289.563 109.361 289.874 109.668C290.49 109.514 290.641 109.668 291.106 109.668Z" fill="#FCFFFD"/>
<path d="M209.779 151.283C211.936 153.587 211.936 157.272 209.471 159.422C207.161 161.572 203.464 161.572 201.308 159.115C199.152 156.811 199.152 153.126 201.616 150.976C203.927 148.826 207.623 148.98 209.779 151.283Z" fill="#FCFFFD"/>
<path d="M242.125 199.963C245.358 199.963 247.98 197.35 247.98 194.127C247.98 190.905 245.358 188.292 242.125 188.292C238.893 188.292 236.273 190.905 236.273 194.127C236.273 197.35 238.893 199.963 242.125 199.963Z" fill="#FCFFFD"/>
<path d="M291.105 75.1155C293.261 77.4191 293.261 81.1046 290.795 83.2543C288.333 85.4044 284.789 85.4044 282.634 82.9474C280.478 80.6438 280.478 76.9583 282.94 74.8082C285.251 72.812 288.946 72.812 291.105 75.1155Z" fill="#FCFFFD"/>
<path d="M323.446 123.795C326.68 123.795 329.301 121.183 329.301 117.96C329.301 114.737 326.68 112.125 323.446 112.125C320.216 112.125 317.595 114.737 317.595 117.96C317.595 121.183 320.216 123.795 323.446 123.795Z" fill="#FCFFFD"/>
<path d="M280.165 121.953C288.33 130.552 287.868 144.066 279.242 152.205C270.615 160.344 257.064 159.883 248.899 151.283C240.736 142.684 241.198 129.17 249.825 121.031C258.448 113.046 272.003 113.353 280.165 121.953Z" stroke="#FCFFFD" stroke-miterlimit="10"/>
<path d="M87.4849 205.644L0 112.738L50.8277 65.1336L138.313 158.04L87.4849 205.644Z" fill="#3F467B"/>
<path d="M130.056 157.752L50.5392 73.3672L8.22046 113.007L87.7368 197.392L130.056 157.752Z" stroke="#FCFFFD" stroke-miterlimit="10"/>
<path d="M50.4761 76.5127L11.5247 112.998L87.8772 194.026L126.829 157.541L50.4761 76.5127Z" stroke="#FCFFFD" stroke-width="0.5" stroke-miterlimit="10"/>
<path d="M74.0848 120.263L81.6322 125.33L83.6344 127.48L65.1517 144.833L67.4621 147.29L62.6873 151.743L53.1377 141.608L57.9125 137.154L60.5308 139.919L74.393 127.019L70.8504 123.334L74.0848 120.263Z" fill="#FCFFFD"/>
<path d="M50.5209 98.7645C46.0543 94.1574 38.8152 93.8505 34.0404 98.3037C29.4199 102.757 29.1116 109.974 33.5782 114.735C38.0451 119.342 45.2839 119.649 50.0587 115.196C54.6796 110.742 54.9875 103.371 50.5209 98.7645ZM42.2035 104.6C42.2035 104.907 42.3578 105.368 42.5117 105.982C42.9739 107.057 43.1278 107.978 43.1278 108.593C43.1278 109.36 42.8196 109.974 42.2035 110.589C41.5874 111.203 40.9713 111.51 40.2013 111.356C39.4312 111.356 38.8152 111.05 38.0451 110.435L36.9669 111.356L36.1969 110.435L37.2747 109.514C36.6586 108.746 36.3508 107.978 36.3508 107.211C36.3508 106.442 36.813 105.675 37.583 104.907L39.123 106.442C38.6612 106.903 38.353 107.364 38.353 107.671C38.353 108.132 38.5069 108.439 38.8152 108.746C39.123 109.053 39.4313 109.207 39.7391 109.207C40.0473 109.207 40.3552 109.053 40.6634 108.746C40.9713 108.439 41.1256 108.132 41.1256 107.825C41.1256 107.517 41.1256 107.057 40.8174 106.442C40.3552 105.368 40.0473 104.446 40.0473 103.832C40.0473 103.064 40.3552 102.45 40.9713 101.836C41.5874 101.221 42.2035 100.914 42.9739 101.068C43.7439 101.068 44.36 101.375 45.13 101.989L46.2083 100.914L46.9783 101.836L46.2083 103.218C46.6704 103.985 46.9783 104.754 46.8243 105.368C46.6704 106.136 46.3622 106.903 45.5922 107.517L44.0517 105.982C44.5139 105.521 44.6678 105.214 44.8221 104.754C44.8221 104.446 44.8221 103.985 44.5139 103.678C44.2061 103.371 43.8978 103.218 43.59 103.218C43.2817 103.218 42.9739 103.371 42.6656 103.678C42.5117 103.985 42.3578 104.293 42.2035 104.6Z" fill="#FCFFFD"/>
<path d="M104.429 155.89C99.9623 151.283 92.7231 150.976 87.9483 155.429C83.3278 159.882 83.0196 167.1 87.4862 171.86C91.9531 176.467 99.1919 176.774 103.967 172.321C108.588 167.867 108.895 160.65 104.429 155.89ZM96.1114 161.878C96.1114 162.186 96.2657 162.646 96.4197 163.261C96.8818 164.335 97.0358 165.257 97.0358 165.871C97.0358 166.639 96.7275 167.253 96.1114 167.867C95.4953 168.482 94.8792 168.789 94.1092 168.635C93.3392 168.635 92.7231 168.328 91.9531 167.714L90.8748 168.635L90.1048 167.714L91.1827 166.792C90.5666 166.025 90.2588 165.257 90.2588 164.489C90.2588 163.721 90.7209 162.953 91.4909 162.186L93.031 163.721C92.5692 164.182 92.261 164.643 92.261 164.95C92.261 165.41 92.4149 165.718 92.7231 166.025C93.031 166.332 93.3392 166.485 93.6471 166.485C93.9553 166.485 94.2632 166.332 94.5714 166.025C94.8792 165.718 95.0336 165.41 95.0336 165.103C95.0336 164.796 95.0335 164.335 94.7253 163.721C94.2632 162.646 93.9553 161.725 93.9553 161.111C93.9553 160.343 94.2632 159.729 94.8792 159.114C95.4953 158.5 96.1114 158.193 96.8818 158.347C97.6518 158.347 98.2679 158.654 99.0379 159.268L100.116 158.193L100.886 159.114L100.116 160.343C100.578 161.111 100.886 161.878 100.732 162.493C100.578 163.261 100.27 164.028 99.5001 164.643L97.9597 163.107C98.4219 162.646 98.5758 162.339 98.7301 161.878C98.7301 161.571 98.7301 161.111 98.4219 160.804C98.114 160.496 97.8058 160.343 97.4979 160.343C97.1897 160.343 96.8818 160.496 96.5736 160.804C96.2657 161.264 96.1114 161.571 96.1114 161.878Z" fill="#FCFFFD"/>
<path d="M54.3714 80.7976C52.0609 82.9472 48.3644 82.9473 46.2083 80.4902C44.0518 78.1867 44.0518 74.5012 46.5161 72.3515C48.8266 70.2014 52.5231 70.2014 54.6792 72.6584C56.8357 74.962 56.8357 78.6475 54.3714 80.7976Z" fill="#FCFFFD"/>
<path d="M15.4034 117.345C13.093 119.495 9.39643 119.495 7.23992 117.038C5.08379 114.735 5.08379 111.049 7.54816 108.899C9.85859 106.749 13.5551 106.749 15.7113 109.206C17.8678 111.663 17.8678 115.042 15.4034 117.345Z" fill="#FCFFFD"/>
<path d="M128.298 163.216C131.415 162.363 133.248 159.152 132.392 156.044C131.536 152.936 128.316 151.109 125.199 151.962C122.082 152.815 120.248 156.026 121.104 159.134C121.96 162.242 125.181 164.069 128.298 163.216Z" fill="#FCFFFD"/>
<path d="M91.797 198.273C89.4865 200.423 85.79 200.423 83.6335 197.966C81.4773 195.663 81.4773 191.977 83.9417 189.827C86.2521 187.677 89.9487 187.677 92.1048 190.134C94.2613 192.438 94.107 196.123 91.797 198.273Z" fill="#FCFFFD"/>
<path d="M83.7895 150.976C75.1642 159.115 61.6102 158.654 53.4471 150.054C45.2836 141.455 45.7457 127.941 54.371 119.803C62.9963 111.664 76.5503 112.125 84.7134 120.724C92.8769 129.324 92.4148 142.837 83.7895 150.976Z" stroke="#FCFFFD" stroke-miterlimit="10"/>
<path d="M249.67 267.837L313.435 214.705C313.435 214.551 307.122 281.658 249.67 267.837Z" fill="#0066FF"/>
<path d="M249.67 267.837L313.435 214.704C313.435 214.551 245.973 209.023 249.67 267.837Z" fill="#418DFF"/>
<path d="M244.896 277.972L300.651 274.748C300.651 274.748 270.308 308.532 244.896 277.972Z" fill="#0066FF"/>
<path d="M244.896 277.973L300.651 274.748C300.651 274.748 266.613 244.803 244.896 277.973Z" fill="#418DFF"/>
<path d="M101.348 255.245L41.4329 220.847C41.4329 220.847 95.8032 206.566 101.348 255.245Z" fill="#418DFF"/>
<path d="M101.348 255.245L41.4329 220.846C41.4329 220.846 56.3733 274.747 101.348 255.245Z" fill="#0066FF"/>
<path d="M106.585 267.376L19.1001 270.14C19.1001 270.14 68.0795 218.697 106.585 267.376Z" fill="#418DFF"/>
<path d="M106.585 267.376L19.1001 270.14C19.1001 270.14 71.16 318.359 106.585 267.376Z" fill="#0066FF"/>
<path d="M220.56 288.261C241.826 288.261 259.065 281.799 259.065 273.826C259.065 265.854 241.826 259.391 220.56 259.391C199.294 259.391 182.054 265.854 182.054 273.826C182.054 281.799 199.294 288.261 220.56 288.261Z" fill="#FFCE5B"/>
<path d="M182.054 285.957C182.054 293.943 199.305 300.391 220.56 300.391C241.815 300.391 259.065 293.943 259.065 285.957V273.825C259.065 281.811 241.815 288.261 220.56 288.261C199.305 288.261 182.054 281.811 182.054 273.825V285.957Z" fill="#FFE7AD"/>
<path d="M206.698 287.34C192.22 285.189 182.054 279.968 182.054 273.825V285.957C182.054 292.099 192.22 297.322 206.698 299.471V287.34Z" fill="#F7BF30"/>
<path d="M220.56 288.26H215.786V300.391H220.56V288.26Z" fill="#FFC234"/>
<path d="M219.021 272.905C240.287 272.905 257.526 266.442 257.526 258.47C257.526 250.498 240.287 244.035 219.021 244.035C197.755 244.035 180.515 250.498 180.515 258.47C180.515 266.442 197.755 272.905 219.021 272.905Z" fill="#FFCE5B"/>
<path d="M180.515 270.601C180.515 278.586 197.766 285.036 219.021 285.036C240.276 285.036 257.526 278.586 257.526 270.601V258.469C257.526 266.454 240.276 272.904 219.021 272.904C197.766 272.904 180.515 266.454 180.515 258.469V270.601Z" fill="#FFE7AD"/>
<path d="M205.159 271.983C190.681 269.833 180.515 264.612 180.515 258.469V270.601C180.515 276.743 190.681 281.964 205.159 284.114V271.983Z" fill="#F7BF30"/>
<path d="M219.021 272.904H214.247V285.035H219.021V272.904Z" fill="#FFC234"/>
<path d="M228.262 258.47C249.53 258.47 266.768 252.007 266.768 244.035C266.768 236.063 249.53 229.6 228.262 229.6C206.996 229.6 189.756 236.063 189.756 244.035C189.756 252.007 206.996 258.47 228.262 258.47Z" fill="#FFCE5B"/>
<path d="M189.756 256.166C189.756 264.152 207.007 270.601 228.262 270.601C249.519 270.601 266.768 264.152 266.768 256.166V244.035C266.768 252.02 249.519 258.47 228.262 258.47C207.007 258.47 189.756 252.02 189.756 244.035V256.166Z" fill="#FFE7AD"/>
<path d="M214.4 257.549C199.922 255.399 189.756 250.178 189.756 244.035V256.166C189.756 262.309 199.922 267.53 214.4 269.68V257.549Z" fill="#F7BF30"/>
<path d="M228.263 258.469H223.489V270.601H228.263V258.469Z" fill="#FFC234"/>
<path d="M220.56 243.114C241.826 243.114 259.065 236.651 259.065 228.679C259.065 220.706 241.826 214.244 220.56 214.244C199.294 214.244 182.054 220.706 182.054 228.679C182.054 236.651 199.294 243.114 220.56 243.114Z" fill="#FFCE5B"/>
<path d="M182.054 240.81C182.054 248.795 199.305 255.245 220.56 255.245C241.815 255.245 259.065 248.795 259.065 240.81V228.678C259.065 236.664 241.815 243.114 220.56 243.114C199.305 243.114 182.054 236.664 182.054 228.678V240.81Z" fill="#FFE7AD"/>
<path d="M206.698 242.192C192.22 240.042 182.054 234.821 182.054 228.678V240.81C182.054 246.953 192.22 252.174 206.698 254.324V242.192Z" fill="#F7BF30"/>
<path d="M220.56 243.114H215.786V255.245H220.56V243.114Z" fill="#FFC234"/>
<path d="M215.939 225.915C237.205 225.915 254.447 219.452 254.447 211.48C254.447 203.508 237.205 197.045 215.939 197.045C194.673 197.045 177.433 203.508 177.433 211.48C177.433 219.452 194.673 225.915 215.939 225.915Z" fill="#FFCE5B"/>
<path d="M177.433 223.611C177.433 231.596 194.684 238.046 215.939 238.046C237.194 238.046 254.447 231.596 254.447 223.611V211.48C254.447 219.465 237.194 225.914 215.939 225.914C194.684 225.914 177.433 219.465 177.433 211.48V223.611Z" fill="#FFE7AD"/>
<path d="M215.94 225.915H211.165V238.046H215.94V225.915Z" fill="#FFC234"/>
<path d="M223.642 210.558C244.908 210.558 262.147 204.095 262.147 196.123C262.147 188.151 244.908 181.688 223.642 181.688C202.376 181.688 185.136 188.151 185.136 196.123C185.136 204.095 202.376 210.558 223.642 210.558Z" fill="#FFCE5B"/>
<path d="M185.136 208.255C185.136 216.24 202.386 222.689 223.642 222.689C244.897 222.689 262.147 216.24 262.147 208.255V196.123C262.147 204.108 244.897 210.558 223.642 210.558C202.386 210.558 185.136 204.108 185.136 196.123V208.255Z" fill="#FFE7AD"/>
<path d="M209.779 209.637C195.301 207.487 185.136 202.266 185.136 196.123V208.255C185.136 214.397 195.301 219.618 209.779 221.768V209.637Z" fill="#F7BF30"/>
<path d="M223.642 210.558H218.867V222.689H223.642V210.558Z" fill="#FFC234"/>
<path d="M212.859 196.124C234.125 196.124 251.365 189.661 251.365 181.688C251.365 173.716 234.125 167.254 212.859 167.254C191.593 167.254 174.354 173.716 174.354 181.688C174.354 189.661 191.593 196.124 212.859 196.124Z" fill="#FFCE5B"/>
<path d="M174.354 193.82C174.354 201.806 191.604 208.255 212.859 208.255C234.114 208.255 251.365 201.806 251.365 193.82V181.689C251.365 189.674 234.114 196.124 212.859 196.124C191.604 196.124 174.354 189.674 174.354 181.689V193.82Z" fill="#FFE7AD"/>
<path d="M198.997 195.202C184.519 193.053 174.354 187.831 174.354 181.689V193.82C174.354 199.963 184.519 205.184 198.997 207.334V195.202Z" fill="#F7BF30"/>
<path d="M212.859 196.124H208.084V208.255H212.859V196.124Z" fill="#FFC234"/>
<path d="M217.48 180.767C238.746 180.767 255.986 174.304 255.986 166.332C255.986 158.36 238.746 151.897 217.48 151.897C196.214 151.897 178.974 158.36 178.974 166.332C178.974 174.304 196.214 180.767 217.48 180.767Z" fill="#FFCE5B"/>
<path d="M217.48 158.654C232.574 158.654 245.05 162.186 246.59 166.639C246.744 166.332 246.744 166.025 246.744 165.718C246.744 160.804 233.652 156.811 217.48 156.811C201.307 156.811 188.216 160.804 188.216 165.718C188.216 166.025 188.216 166.332 188.37 166.639C189.756 162.186 202.232 158.654 217.48 158.654Z" fill="#FFE7AD"/>
<path d="M178.974 178.463C178.974 186.448 196.225 192.898 217.48 192.898C238.735 192.898 255.986 186.448 255.986 178.463V166.332C255.986 174.317 238.735 180.767 217.48 180.767C196.225 180.767 178.974 174.317 178.974 166.332V178.463Z" fill="#FFE7AD"/>
<path d="M203.618 179.845C189.139 177.695 178.974 172.474 178.974 166.332V178.463C178.974 184.606 189.139 189.827 203.618 191.977V179.845Z" fill="#F7BF30"/>
<path d="M246.744 165.718C246.744 170.632 233.652 174.625 217.48 174.625C201.307 174.625 188.216 170.632 188.216 165.718C188.216 160.804 201.307 156.811 217.48 156.811C233.652 156.811 246.744 160.804 246.744 165.718Z" fill="#FFE7AD"/>
<path d="M217.481 180.767H212.706V192.898H217.481V180.767Z" fill="#FFC234"/>
<path d="M213.938 163.875L214.092 160.343H212.089C211.319 160.343 210.703 160.343 210.087 160.496C209.471 160.65 208.855 160.65 208.393 160.804C207.469 161.111 206.853 161.572 206.699 162.032C206.545 162.953 208.855 163.875 211.782 163.875H213.938Z" fill="#FFE7AD"/>
<path d="M218.251 169.249H223.487C226.568 169.249 229.032 168.328 228.878 167.253C228.724 166.639 227.8 166.025 226.26 165.717C225.336 165.564 224.257 165.41 223.179 165.41H218.096L218.251 169.249Z" fill="#FFE7AD"/>
<path d="M201.462 167.867C201.154 169.557 204.696 170.939 209.471 170.939H213.629L213.475 173.089H218.25V170.939H223.641C229.34 170.939 233.806 169.249 233.499 167.253C233.19 165.41 228.57 163.875 223.179 163.875H218.25V160.343H220.868C222.409 160.343 223.949 160.65 224.719 160.957C225.181 161.264 225.489 161.418 225.643 161.879H229.802C229.648 160.343 225.489 159.114 220.868 158.961H218.25V157.579H214.091V158.961H212.089C207.007 158.961 202.694 160.343 202.386 162.032C202.078 163.721 206.236 165.257 211.627 165.257H213.784L213.629 169.096H209.625C207.468 169.096 205.774 168.482 205.928 167.714H201.462V167.867ZM226.259 165.718C227.799 166.025 228.724 166.639 228.878 167.253C229.032 168.328 226.567 169.249 223.487 169.249H218.25V165.41H223.333C224.257 165.41 225.335 165.564 226.259 165.718ZM206.698 162.186C206.698 161.725 207.314 161.264 208.393 160.957C208.855 160.804 209.471 160.65 210.087 160.65C210.703 160.496 211.319 160.496 212.089 160.496H214.091L213.938 164.028H211.935C208.855 163.875 206.544 163.107 206.698 162.186Z" fill="#FFC234"/>
<path d="M122.913 288.261C144.179 288.261 161.419 281.799 161.419 273.827C161.419 265.854 144.179 259.392 122.913 259.392C101.647 259.392 84.4072 265.854 84.4072 273.827C84.4072 281.799 101.647 288.261 122.913 288.261Z" fill="#FFCE5B"/>
<path d="M84.4072 285.957C84.4072 293.943 101.658 300.391 122.913 300.391C144.168 300.391 161.419 293.943 161.419 285.957V273.826C161.419 281.811 144.168 288.261 122.913 288.261C101.658 288.261 84.4072 281.811 84.4072 273.826V285.957Z" fill="#FFE7AD"/>
<path d="M109.051 287.341C94.5729 285.189 84.4072 279.968 84.4072 273.826V285.957C84.4072 292.099 94.5729 297.322 109.051 299.471V287.341Z" fill="#F7BF30"/>
<path d="M122.913 288.26H118.139V300.391H122.913V288.26Z" fill="#FFC234"/>
<path d="M121.372 272.905C142.638 272.905 159.878 266.443 159.878 258.47C159.878 250.498 142.638 244.035 121.372 244.035C100.106 244.035 82.8669 250.498 82.8669 258.47C82.8669 266.443 100.106 272.905 121.372 272.905Z" fill="#FFCE5B"/>
<path d="M82.8669 270.602C82.8669 278.587 100.117 285.037 121.372 285.037C142.628 285.037 159.878 278.587 159.878 270.602V258.47C159.878 266.455 142.628 272.905 121.372 272.905C100.117 272.905 82.8669 266.455 82.8669 258.47V270.602Z" fill="#FFE7AD"/>
<path d="M107.511 271.984C93.0323 269.834 82.8669 264.613 82.8669 258.47V270.602C82.8669 276.744 93.0323 281.966 107.511 284.115V271.984Z" fill="#F7BF30"/>
<path d="M121.373 272.905H116.599V285.036H121.373V272.905Z" fill="#FFC234"/>
<path d="M130.612 258.47C151.878 258.47 169.118 252.007 169.118 244.035C169.118 236.063 151.878 229.6 130.612 229.6C109.346 229.6 92.1069 236.063 92.1069 244.035C92.1069 252.007 109.346 258.47 130.612 258.47Z" fill="#FFCE5B"/>
<path d="M92.1069 256.167C92.1069 264.152 109.357 270.602 130.612 270.602C151.868 270.602 169.118 264.152 169.118 256.167V244.035C169.118 252.021 151.868 258.47 130.612 258.47C109.357 258.47 92.1069 252.021 92.1069 244.035V256.167Z" fill="#FFE7AD"/>
<path d="M116.751 257.549C102.272 255.399 92.1069 250.178 92.1069 244.035V256.167C92.1069 262.309 102.272 267.53 116.751 269.68V257.549Z" fill="#F7BF30"/>
<path d="M130.614 258.47H125.839V270.602H130.614V258.47Z" fill="#FFC234"/>
<path d="M122.913 243.114C144.179 243.114 161.419 236.651 161.419 228.679C161.419 220.706 144.179 214.244 122.913 214.244C101.647 214.244 84.4072 220.706 84.4072 228.679C84.4072 236.651 101.647 243.114 122.913 243.114Z" fill="#FFCE5B"/>
<path d="M84.4072 240.81C84.4072 248.796 101.658 255.245 122.913 255.245C144.168 255.245 161.419 248.796 161.419 240.81V228.679C161.419 236.664 144.168 243.114 122.913 243.114C101.658 243.114 84.4072 236.664 84.4072 228.679V240.81Z" fill="#FFE7AD"/>
<path d="M109.051 242.192C94.5729 240.043 84.4072 234.821 84.4072 228.679V240.81C84.4072 246.953 94.5729 252.174 109.051 254.324V242.192Z" fill="#F7BF30"/>
<path d="M122.913 243.114H118.139V255.245H122.913V243.114Z" fill="#FFC234"/>
<path d="M129.073 227.604C150.34 227.604 167.579 221.142 167.579 213.169C167.579 205.197 150.34 198.734 129.073 198.734C107.807 198.734 90.5676 205.197 90.5676 213.169C90.5676 221.142 107.807 227.604 129.073 227.604Z" fill="#FFCE5B"/>
<path d="M90.5667 225.3C90.5667 233.285 107.817 239.735 129.072 239.735C150.327 239.735 167.578 233.285 167.578 225.3V213.168C167.578 221.154 150.327 227.604 129.072 227.604C107.817 227.604 90.5667 221.154 90.5667 213.168V225.3Z" fill="#FFE7AD"/>
<path d="M115.21 226.682C100.732 224.532 90.5667 219.311 90.5667 213.168V225.3C90.5667 231.443 100.732 236.664 115.21 238.814V226.682Z" fill="#F7BF30"/>
<path d="M129.074 227.604H124.299V239.735H129.074V227.604Z" fill="#FFC234"/>
<path d="M125.993 210.712C147.259 210.712 164.499 204.249 164.499 196.277C164.499 188.305 147.259 181.842 125.993 181.842C104.727 181.842 87.4873 188.305 87.4873 196.277C87.4873 204.249 104.727 210.712 125.993 210.712Z" fill="#FFCE5B"/>
<path d="M87.4873 208.409C87.4873 216.394 104.738 222.843 125.993 222.843C147.248 222.843 164.499 216.394 164.499 208.409V196.277C164.499 204.262 147.248 210.712 125.993 210.712C104.738 210.712 87.4873 204.262 87.4873 196.277V208.409Z" fill="#FFE7AD"/>
<path d="M112.131 209.791C97.653 207.641 87.4873 202.42 87.4873 196.277V208.409C87.4873 214.551 97.653 219.772 112.131 221.922V209.791Z" fill="#F7BF30"/>
<path d="M125.994 210.712H121.219V222.843H125.994V210.712Z" fill="#FFC234"/>
<path d="M124.452 194.126C145.718 194.126 162.957 187.664 162.957 179.691C162.957 171.719 145.718 165.257 124.452 165.257C103.186 165.257 85.946 171.719 85.946 179.691C85.946 187.664 103.186 194.126 124.452 194.126Z" fill="#FFCE5B"/>
<path d="M85.946 191.823C85.946 199.808 103.197 206.258 124.452 206.258C145.707 206.258 162.957 199.808 162.957 191.823V179.691C162.957 187.677 145.707 194.126 124.452 194.126C103.197 194.126 85.946 187.677 85.946 179.691V191.823Z" fill="#FFE7AD"/>
<path d="M110.59 193.205C96.1117 191.055 85.946 185.834 85.946 179.691V191.823C85.946 197.965 96.1117 203.186 110.59 205.336V193.205Z" fill="#F7BF30"/>
<path d="M124.452 194.126H119.677V206.258H124.452V194.126Z" fill="#FFC234"/>
<path d="M130.306 178.924C151.572 178.924 168.812 172.461 168.812 164.489C168.812 156.517 151.572 150.054 130.306 150.054C109.04 150.054 91.8008 156.517 91.8008 164.489C91.8008 172.461 109.04 178.924 130.306 178.924Z" fill="#FFCE5B"/>
<path d="M91.8008 176.467C91.8008 184.452 109.051 190.901 130.306 190.901C151.562 190.901 168.812 184.452 168.812 176.467V164.335C168.812 172.32 151.562 178.77 130.306 178.77C109.051 178.77 91.8008 172.32 91.8008 164.335V176.467Z" fill="#FFE7AD"/>
<path d="M116.444 177.849C101.966 175.698 91.8008 170.477 91.8008 164.335V176.467C91.8008 182.609 101.966 187.83 116.444 189.98V177.849Z" fill="#F7BF30"/>
<path d="M130.46 178.771H125.686V190.902H130.46V178.771Z" fill="#FFC234"/>
<path d="M136.775 164.336C158.041 164.336 175.28 157.873 175.28 149.901C175.28 141.929 158.041 135.466 136.775 135.466C115.509 135.466 98.269 141.929 98.269 149.901C98.269 157.873 115.509 164.336 136.775 164.336Z" fill="#FFCE5B"/>
<path d="M98.269 162.032C98.269 170.017 115.52 176.467 136.775 176.467C158.03 176.467 175.28 170.017 175.28 162.032V149.901C175.28 157.886 158.03 164.336 136.775 164.336C115.52 164.336 98.269 157.886 98.269 149.901V162.032Z" fill="#FFE7AD"/>
<path d="M122.913 163.414C108.435 161.264 98.269 156.043 98.269 149.901V162.032C98.269 168.175 108.435 173.396 122.913 175.546V163.414Z" fill="#F7BF30"/>
<path d="M136.775 164.335H132V176.467H136.775V164.335Z" fill="#FFC234"/>
<path d="M129.072 149.133C150.338 149.133 167.578 142.67 167.578 134.697C167.578 126.725 150.338 120.263 129.072 120.263C107.806 120.263 90.5662 126.725 90.5662 134.697C90.5662 142.67 107.806 149.133 129.072 149.133Z" fill="#FFCE5B"/>
<path d="M129.073 127.02C144.167 127.02 156.642 130.552 158.183 135.005C158.337 134.698 158.337 134.391 158.337 134.084C158.337 129.17 145.245 125.177 129.073 125.177C112.9 125.177 99.8081 129.17 99.8081 134.084C99.8081 134.391 99.8081 134.698 99.9621 135.005C101.502 130.552 113.978 127.02 129.073 127.02Z" fill="#FFE7AD"/>
<path d="M90.5662 146.675C90.5662 154.661 107.817 161.111 129.072 161.111C150.327 161.111 167.578 154.661 167.578 146.675V134.544C167.578 142.529 150.327 148.979 129.072 148.979C107.817 148.979 90.5662 142.529 90.5662 134.544V146.675Z" fill="#FFE7AD"/>
<path d="M115.21 148.058C100.731 145.908 90.5662 140.687 90.5662 134.544V146.675C90.5662 152.818 100.731 158.039 115.21 160.189V148.058Z" fill="#F7BF30"/>
<path d="M158.337 134.084C158.337 138.998 145.245 142.991 129.073 142.991C112.9 142.991 99.8081 138.998 99.8081 134.084C99.8081 129.17 112.9 125.178 129.073 125.178C145.245 125.024 158.337 129.017 158.337 134.084Z" fill="#FFE7AD"/>
<path d="M129.073 148.98H124.298V161.112H129.073V148.98Z" fill="#FFC234"/>
<path d="M145.707 135.926C145.707 135.773 145.707 135.619 145.707 135.466C145.553 134.083 144.013 133.162 142.011 132.548C142.011 132.087 142.011 131.166 142.011 130.705C142.011 130.552 142.011 130.398 142.011 130.398C141.703 128.095 136.928 126.866 132.307 126.866H130.459V126.252C130.459 125.791 130.151 125.484 129.689 125.484H125.684C125.222 125.484 124.914 125.791 124.914 126.252V126.866H123.682C118.753 126.866 113.671 128.095 113.209 130.552C113.209 130.705 113.209 130.859 113.209 131.012C113.209 131.012 113.209 131.012 113.209 131.166V133.316C113.209 133.776 113.209 134.237 113.671 134.852C113.979 135.158 114.287 135.466 114.749 135.619H112.9C112.746 135.619 112.746 135.619 112.592 135.619C112.592 135.619 112.438 135.619 112.438 135.773C112.438 135.773 112.438 135.773 112.284 135.926C112.284 135.926 112.284 135.926 112.13 136.08C112.13 136.08 112.13 136.233 111.976 136.233C111.976 136.387 111.976 136.54 111.976 136.694V138.844C111.976 139.305 111.976 139.766 112.438 140.38C113.671 141.762 116.905 142.683 120.756 142.683H123.99V144.065C123.99 144.526 124.298 144.833 124.76 144.833H129.535C129.997 144.833 130.305 144.526 130.305 144.065V142.683H134.772C139.546 142.683 144.783 141.454 145.245 138.844C145.245 138.844 145.245 138.69 145.245 138.537C145.707 138.383 145.707 137.769 145.707 135.926ZM121.218 137.462H125.222L125.376 133.623H123.22C117.829 133.623 113.671 132.087 113.979 130.398C114.287 128.709 118.599 127.327 123.682 127.327H125.684V125.945H129.689V127.327H132.307C137.082 127.327 141.087 128.555 141.24 130.244H137.082C137.082 129.937 136.774 129.63 136.158 129.323C135.234 128.862 133.847 128.709 132.307 128.709H129.689V132.241H134.618C140.008 132.241 144.475 133.776 144.937 135.619C145.245 137.615 140.933 139.305 135.08 139.305H129.689V141.454H124.914L125.068 139.305H120.909C116.135 139.305 112.592 137.923 112.9 136.233H117.367C117.521 136.848 119.061 137.462 121.218 137.462Z" fill="#FFE7AD"/>
<path d="M125.532 132.087L125.686 128.555H123.683C122.913 128.555 122.297 128.555 121.681 128.709C121.065 128.863 120.449 128.862 119.987 129.016C119.063 129.323 118.447 129.784 118.292 130.244C118.138 131.166 120.449 132.087 123.375 132.087H125.532Z" fill="#FFE7AD"/>
<path d="M129.844 137.462H135.08C138.161 137.462 140.625 136.54 140.471 135.465C140.317 134.851 139.393 134.237 137.853 133.929C136.929 133.776 135.85 133.623 134.772 133.623H129.689L129.844 137.462Z" fill="#FFE7AD"/>
<path d="M113.054 136.08C112.746 137.77 116.289 139.152 121.064 139.152H125.222L125.068 141.302H129.843V139.152H135.234C140.932 139.152 145.399 137.462 145.091 135.466C144.783 133.623 140.162 132.088 134.771 132.088H129.843V128.556H132.461C134.001 128.556 135.541 128.863 136.311 129.17C136.774 129.477 137.082 129.631 137.236 130.091H141.395C141.24 128.556 137.082 127.327 132.461 127.174H129.843V125.792H125.838V127.174H123.836C118.753 127.174 114.44 128.556 114.132 130.245C113.824 131.934 117.983 133.47 123.374 133.47H125.53L125.376 137.309H121.371C119.215 137.309 117.521 136.695 117.675 135.927H113.054V136.08ZM137.852 133.931C139.392 134.238 140.316 134.852 140.47 135.466C140.624 136.541 138.16 137.462 135.079 137.462H129.843V133.623H134.925C136.004 133.623 137.082 133.777 137.852 133.931ZM118.291 130.399C118.291 129.938 118.907 129.477 119.985 129.17C120.447 129.017 121.064 128.863 121.68 128.863C122.296 128.709 122.912 128.709 123.682 128.709H125.684L125.53 132.241H123.528C120.447 132.088 118.137 131.32 118.291 130.399Z" fill="#FFC234"/>
<path d="M226.944 301.849L213.185 305.717C212.952 305.779 212.694 305.754 212.469 305.665L209.54 304.539C209.256 304.418 208.943 304.557 208.823 304.841L207.967 306.78C207.8 307.078 207.514 307.31 207.162 307.307C205.736 307.41 202.014 307.553 201.559 306.482C201.02 305.282 201.642 298.253 201.434 295.209C203.149 296.129 206.568 297.116 211.52 294.573C212.505 295.397 214.524 296.784 218.21 297.399C224.123 298.441 227.789 299.158 228.564 299.593C229.339 300.027 229.268 301.197 226.944 301.849Z" fill="black"/>
<path d="M211.046 254.488C213.4 269.735 212.762 290.376 212.625 293.615C212.597 293.873 212.477 294.156 212.211 294.281C211.945 294.406 211.739 294.565 211.473 294.69C206.522 297.233 203.103 296.14 201.375 295.175C201.017 294.977 200.766 294.796 200.574 294.649C200.322 294.473 200.198 294.208 200.165 293.917C200.068 291.44 198.962 283.448 195.637 270.975C192.062 257.622 181.622 240.395 173.956 228.541C166.29 216.688 159.88 207.684 152.954 193.121C147.614 181.865 146.831 168.978 146.501 161.066C146.44 159.433 146.863 157.913 147.691 156.58C154.298 156.524 163.559 154.672 176.079 150.503C177.368 150.091 178.643 149.632 179.964 149.161C182.153 154.949 186.243 170.659 190.543 185.159C192.667 192.316 194.805 199.17 196.823 204.356C203.455 221.602 208.478 237.95 211.046 254.488Z" fill="#232533"/>
<path d="M152.954 193.121C159.88 207.684 166.29 216.689 173.956 228.542C178.971 236.295 185.173 246.349 189.863 256.113C184.09 226.302 180.829 209.231 177.744 182.137C175.344 161.067 172.268 154.426 171.468 151.979C161.251 155.113 153.46 156.531 147.691 156.58C146.863 157.913 146.44 159.433 146.501 161.067C146.831 168.978 147.614 181.865 152.954 193.121Z" fill="#151518"/>
<path d="M181.58 311.076H167.285C167.043 311.076 166.802 310.98 166.609 310.836L164.097 308.956C163.856 308.764 163.518 308.812 163.324 309.051L161.972 310.689C161.731 310.932 161.393 311.076 161.055 310.98C159.654 310.689 156.032 309.824 155.887 308.669C155.694 307.37 158.205 300.771 158.833 297.786C160.234 299.133 163.242 301.017 168.7 299.909C169.424 300.969 171.004 302.843 174.384 304.429C179.793 307.031 183.125 308.717 183.753 309.342C184.381 309.968 183.995 311.076 181.58 311.076Z" fill="black"/>
<path d="M179.165 261.191C177.281 276.503 171.052 296.196 170.037 299.28C169.941 299.519 169.748 299.758 169.458 299.806C169.168 299.858 168.926 299.953 168.637 300.001C163.179 301.109 160.185 299.133 158.785 297.738C158.495 297.447 158.301 297.208 158.157 297.016C157.963 296.773 157.915 296.486 157.964 296.196C158.543 293.789 159.654 285.796 159.847 272.892C160.04 259.072 154.68 239.667 150.526 226.185C146.373 212.703 142.654 202.302 139.949 186.413C137.873 174.134 140.626 161.519 142.461 153.815C142.847 152.225 143.668 150.877 144.827 149.818C151.202 151.552 160.62 152.274 173.804 151.648C175.157 151.599 176.509 151.503 177.909 151.407C178.441 157.57 178.102 173.797 178.296 188.916C178.392 196.38 178.586 203.554 179.117 209.092C180.807 227.485 181.194 244.579 179.165 261.191Z" fill="#232533"/>
<path d="M179.02 152.707C179.02 152.755 179.02 152.851 179.02 152.9C169.554 154.152 165.063 153.189 162.938 151.985C162.938 151.937 162.938 151.889 162.986 151.84C165.739 139.754 170.858 122.95 170.858 112.646C170.858 103.304 170.52 91.1704 164.435 80.9622C164.628 80.8661 164.821 80.7215 165.014 80.6733C167.478 79.4698 170.52 79.9994 173.659 80.8179C180.855 87.7999 182.401 94.7816 182.594 110.527C182.787 128.054 179.89 143.607 179.02 152.707Z" fill="#F4F7FF"/>
<path d="M170.858 112.645C170.858 122.95 165.739 139.754 162.986 151.84C162.986 151.888 162.986 151.937 162.937 151.984C161.344 159.015 160.764 166.189 160.523 170.956C160.426 173.026 160.378 174.615 160.378 175.578C160.378 176.108 159.943 176.493 159.412 176.445C155.935 176.108 143.62 173.99 133.236 161.181C132.898 160.748 132.898 160.17 133.188 159.737C135.216 156.8 142.508 145.099 143.185 128.776C144.006 109.805 139.369 102.052 144.585 95.2627C146.614 94.396 156.128 86.3548 162.068 82.4065C162.937 81.8286 163.71 81.3472 164.386 80.9619C170.52 91.1219 170.858 103.304 170.858 112.645Z" fill="#0066FF"/>
<path d="M193.025 155.885C189.886 161.904 186.409 167.586 183.366 171.293C183.125 171.582 182.642 171.534 182.448 171.149C181.434 168.597 178.44 160.411 179.068 152.9C179.068 152.804 179.068 152.755 179.068 152.707C179.889 143.607 182.787 128.054 182.593 110.527C182.4 94.7815 180.855 87.7999 173.659 80.8179C175.446 81.2993 177.281 81.8289 179.02 82.166C180.034 82.3588 181 82.5031 181.917 82.5513C195.585 90.9297 193.943 113.32 193.943 113.32C193.943 113.32 196.309 149.481 193.025 155.885Z" fill="#0066FF"/>
<path d="M170.858 112.645C170.858 122.95 165.739 139.754 162.986 151.84C162.986 151.888 162.986 151.936 162.938 151.984C161.344 159.015 160.765 166.189 160.523 170.956C159.992 145.918 156.756 133.543 155.597 129.883C155.356 129.161 155.549 128.343 156.128 127.813L163.517 120.831C164.145 120.205 164.29 119.242 163.807 118.52L160.137 112.694C159.751 112.068 159.702 111.249 160.04 110.575C169.023 93.2403 162.117 82.4065 162.117 82.4065C162.986 81.8286 163.759 81.3472 164.435 80.9619C170.52 91.1219 170.858 103.304 170.858 112.645Z" fill="#418DFF"/>
<path d="M186.989 124.201C189.21 132.58 186.989 139.465 184.767 148.566C182.546 157.667 182.401 171.197 182.401 171.197C181.387 168.645 178.392 160.459 179.02 152.948C179.02 152.851 179.02 152.803 179.02 152.755C179.841 143.655 182.739 128.102 182.546 110.575C182.352 94.8296 180.807 87.8476 173.611 80.866C175.398 81.3474 177.233 81.877 178.972 82.2141C183.946 89.3886 188.486 104.941 189.452 108.504C189.597 108.938 189.5 109.419 189.21 109.805C188.099 111.345 185.347 115.342 185.105 117.268C184.912 119.579 184.816 115.775 186.989 124.201Z" fill="#418DFF"/>
<path d="M269.766 35.8932L256.629 55.8275C256.389 56.2129 256.485 56.6943 256.872 56.9349L263.052 60.9797C263.439 61.2204 263.923 61.1243 264.163 60.739L277.3 40.8047C277.54 40.4193 277.444 39.9379 277.06 39.6972L270.877 35.6525C270.538 35.4118 270.006 35.5079 269.766 35.8932Z" fill="#F7A120"/>
<path d="M268.656 40.2749L260.254 53.0348C259.914 53.5644 260.058 54.2386 260.59 54.6239L263.779 56.7424C264.311 57.0795 264.986 56.9352 265.374 56.4052L273.776 43.6454C274.115 43.1158 273.968 42.4416 273.44 42.0566L270.25 39.9378C269.671 39.6489 268.995 39.7932 268.656 40.2749Z" fill="#FFFFFE"/>
<path d="M265.373 38.734L257.5 50.6753C257.26 51.0607 257.356 51.5421 257.74 51.7831L258.851 52.5052L267.592 39.2154L266.481 38.4933C266.097 38.2526 265.613 38.3487 265.373 38.734Z" fill="#D3840E"/>
<path d="M254.842 17.9806C256.1 9.1209 254.989 4.1134 251.172 1.60965C249.821 0.742926 248.131 -0.364862 245.909 0.116897C243.59 0.646501 241.224 2.86134 238.52 7.00248L240.258 8.1099C242.624 4.49837 244.701 2.47638 246.44 2.09104C247.695 1.80213 248.71 2.37995 250.109 3.29489C251.992 4.54658 254.31 7.3396 252.863 17.6439C252.719 18.8473 253.103 20.0512 253.926 20.8697L253.974 20.9179C254.07 21.4475 254.362 21.9771 254.89 22.3142C255.857 22.9403 257.112 22.6514 257.739 21.7364C258.367 20.7737 258.079 19.5216 257.16 18.8956C256.484 18.4624 255.665 18.4624 255.037 18.8474C254.842 18.6067 254.794 18.3177 254.842 17.9806Z" fill="#F7A120"/>
<path d="M234.221 49.279C226.591 53.9497 221.471 54.9129 217.704 52.457C216.352 51.5902 214.662 50.4828 214.275 48.2198C213.841 45.9085 214.951 42.8751 217.656 38.6858L219.395 39.7932C217.028 43.4047 215.966 46.101 216.304 47.8344C216.545 49.1347 217.463 49.8086 218.863 50.7235C220.747 51.9756 224.272 52.9384 233.159 47.5455C234.173 46.9195 235.477 46.8234 236.539 47.2566C236.539 47.2566 236.588 47.2566 236.588 47.3048C237.119 47.1606 237.747 47.2566 238.23 47.5937C239.196 48.2198 239.437 49.4715 238.809 50.4346C238.182 51.3978 236.926 51.6385 235.96 51.0124C235.284 50.5792 234.946 49.8086 235.042 49.0865C234.801 49.0383 234.511 49.1347 234.221 49.279Z" fill="#F7A120"/>
<path d="M236.298 5.60613L246.778 12.4435C251.172 15.3326 253.974 19.6662 254.941 24.433C255.181 25.6851 255.325 26.9368 255.325 28.1888C255.325 32.6185 257.643 36.6632 261.364 39.1191L264.018 40.8526L258.946 48.5567L256.292 46.8232C252.571 44.3673 247.887 43.9823 243.735 45.7158C238.085 48.0749 231.42 47.6899 225.962 44.0784L215.483 37.241C214.227 36.4225 217.897 28.6702 223.644 19.9551C229.343 11.1914 235.042 4.78762 236.298 5.60613Z" fill="#F7A120"/>
<path d="M228.159 22.9302C233.913 14.1942 237.565 6.44958 236.317 5.63217C235.068 4.81476 229.392 11.2341 223.638 19.9701C217.884 28.7062 214.232 36.4508 215.481 37.2682C216.729 38.0856 222.406 31.6663 228.159 22.9302Z" fill="#D3850E"/>
<path d="M244.218 31.2221L243.252 32.6666L234.028 26.5995C233.255 26.1182 232.531 25.5886 231.903 25.1068C231.951 25.2996 231.999 25.5403 231.999 25.781C232.047 26.0217 232.144 27.0813 232.337 29.0072L230.792 29.1037L230.406 23.9515L231.226 22.6995L244.218 31.2221Z" fill="#F0EEF5"/>
<path d="M227.218 22.3142C222.437 29.5851 218.718 33.8223 216.835 35.4594C216.69 35.5558 216.545 35.4594 216.593 35.3151C217.366 32.9556 219.78 27.8517 224.562 20.5808C229.343 13.3102 233.062 9.07302 234.945 7.43563C235.09 7.33957 235.235 7.43562 235.187 7.58026C234.414 9.93974 231.999 15.0437 227.218 22.3142Z" fill="#F7A120"/>
<path d="M205.471 54.5626C204.308 56.0016 202.68 57.4848 200.403 58.5778C199.38 59.0673 198.228 59.4795 196.929 59.774C193.673 60.51 188.254 60.7235 185.999 60.7787C185.423 60.7934 184.961 61.2645 184.961 61.8386V67.0427C184.961 67.4733 184.611 67.8192 184.183 67.8192H182.462C182.034 67.8192 181.687 67.4733 181.684 67.0463C181.669 65.887 181.44 63.7009 180.052 62.4312C178.103 60.6425 176.416 61.2203 176.047 62.9575C175.678 64.6909 174.939 68.7393 174.622 71.4223C174.304 74.1016 173.126 77.2108 169.449 78.3296C167.194 72.2165 163.389 62.4312 163.496 56.0163C163.599 49.6014 163.389 44.2391 168.454 40.6655C173.515 37.0882 181.691 40.9783 184.961 40.6655C188.228 40.349 191.864 36.4589 193.555 35.6161C195.242 34.7769 200.938 35.9326 203.784 40.349C206.63 44.7654 207.158 52.4795 205.471 54.5626Z" fill="#383852"/>
<path d="M185.492 74.7022C185.395 75.0875 185.105 75.4246 184.671 75.5207C183.367 75.7136 180.372 76.0985 177.523 75.5689C177.185 75.5207 176.847 75.7618 176.847 76.1467V82.753L174.142 85.4496C173.901 85.6903 173.466 85.7385 173.177 85.5456L167.285 81.5974V72.7281C167.285 72.7281 165.401 69.839 166.657 67.5759C167.574 65.8907 169.844 66.8056 170.907 67.3834C171.148 67.5277 171.486 67.3352 171.438 67.0463C171.293 65.3129 171.003 60.7868 171.486 58.6198C171.583 58.1384 172.162 57.8977 172.597 58.1384C174.046 58.9569 177.62 60.6903 181.966 61.0274C183.077 61.1239 184.188 61.0757 185.347 60.931C185.588 64.3019 186.119 71.3317 185.492 74.7022Z" fill="#FEBFAE"/>
<path d="M167.237 72.8733C167.237 72.8733 172.839 74.751 175.35 75.0881C175.737 75.1363 175.833 75.6177 175.543 75.8106C174.867 76.1955 172.887 76.5327 167.237 75.6659V72.8733Z" fill="#EDA895"/>
<path d="M155.5 119.242C153.085 126.995 144.537 135.951 140.529 139.273C136.52 142.595 130.435 150.781 126.716 157.522C124.398 161.711 121.259 167.875 119.182 172.016L109.668 168.693L108.847 168.308C108.267 168.019 108.074 167.345 108.316 166.815C109.716 163.926 113.676 155.548 115.56 150.492C117.83 144.281 120.824 134.169 124.253 124.154C127.682 114.09 132.27 105.664 137.486 99.5969C142.75 93.5298 151.974 93.6741 154.824 99.1151C157.673 104.46 157.915 111.442 155.5 119.242Z" fill="#0066FF"/>
<path d="M116.526 187.087C115.802 187.087 114.932 186.268 114.401 185.739C114.256 185.594 114.015 185.69 113.966 185.883C113.677 187.665 111.89 190.265 108.654 188.917C105.032 187.472 103.873 183.042 105.274 180.538C106.095 179.094 107.254 176.879 108.123 175.241C108.461 174.615 108.751 174.038 108.944 173.653C109.041 173.508 109.041 173.316 108.944 173.171L116.912 176.445C116.816 176.879 116.623 177.842 116.671 178.949C116.719 179.672 116.816 180.442 117.154 181.212C118.168 183.668 117.54 187.087 116.526 187.087Z" fill="#FEBFAE"/>
<path d="M119.182 171.967C117.926 174.471 117.057 176.204 117.057 176.204C117.057 176.204 117.009 176.301 116.96 176.493L108.992 173.219C108.944 173.075 108.847 172.978 108.75 172.93C108.267 172.641 108.074 171.967 108.316 171.438L109.668 168.645L119.182 171.967Z" fill="#A0B1F9"/>
<path d="M252.575 54.7197C252.575 54.7197 247.599 66.7092 238.423 77.3024C229.247 87.8956 212.682 104.941 193.943 113.319C193.943 113.319 195.585 90.9293 181.918 82.551C182.208 82.551 182.498 82.551 182.787 82.551C188.389 82.2139 204.954 79.999 217.656 73.3541C230.165 66.8057 239.872 59.2458 243.156 50.8675C243.252 50.6268 243.494 50.4825 243.784 50.5307C243.929 50.5786 244.122 50.5786 244.315 50.6268C246.005 50.9157 249.725 52.0231 252.575 54.7197Z" fill="#0066FF"/>
<path d="M253.878 52.6488L252.575 54.7194C249.773 52.0228 246.054 50.9153 244.315 50.5786L245.812 47.9784C245.86 47.7374 246.15 47.6413 246.344 47.7856L253.782 52.0231C253.974 52.1192 254.022 52.4081 253.878 52.6488Z" fill="#A0B1F9"/>
<path d="M252.72 51.3973C253.735 51.1084 258.032 48.3154 257.548 47.4008C257.065 46.4859 250.981 43.741 250.498 43.0672C250.014 42.3929 250.885 41.8151 251.561 42.1522C252.236 42.4894 253.056 42.7783 253.395 42.3447C253.683 41.9115 254.071 41.4302 252.96 40.6595C251.849 39.8892 249.29 38.1075 248.323 39.0225C247.408 39.9374 246.779 40.9966 247.068 42.3447C247.36 43.6932 247.744 46.197 246.634 47.8822L252.72 51.3973Z" fill="#FEBFAE"/>
<path d="M260.01 42.7786L262.572 39.6967C262.908 39.2635 262.86 38.5893 262.428 38.2521C262.28 38.1079 262.088 38.0114 261.848 38.0114C261.652 37.9632 261.461 37.8672 261.413 37.6743C261.221 36.904 260.689 36.3744 259.914 36.278C259.77 36.278 259.626 36.1337 259.578 35.9891C259.334 35.3152 258.611 35.0745 258.031 34.9781C257.839 34.9299 257.692 34.8335 257.644 34.641C257.548 34.3038 257.308 34.0149 257.016 33.8225C256.533 33.4853 255.857 33.63 255.473 34.0631L253.203 36.7597C253.107 36.904 253.007 37.0487 253.007 37.1929C252.911 37.7225 252.911 38.8782 254.41 38.8299C254.65 38.8299 254.846 39.0228 254.894 39.2635C254.942 39.7931 255.229 40.3709 256.197 40.3709C256.389 40.3709 256.584 40.5156 256.632 40.7563C256.776 41.3823 257.356 41.8155 258.031 41.8155C258.223 41.8155 258.419 41.9119 258.467 42.1044C258.707 42.8747 259.626 43.2118 260.01 42.7786Z" fill="#FEBFAE"/>
<path d="M254.846 38.9749C254.894 39.0231 254.942 39.0231 254.99 39.0231C255.038 39.0231 255.134 39.0231 255.182 38.9267L257.983 35.0266C258.079 34.9302 258.031 34.7859 257.935 34.6895C257.839 34.5931 257.692 34.6413 257.596 34.7377L254.794 38.6378C254.698 38.7342 254.746 38.8785 254.846 38.9749Z" fill="#EDA895"/>
<path d="M256.632 40.6109C256.581 40.6109 256.533 40.6109 256.485 40.5627C256.389 40.4666 256.341 40.322 256.437 40.2259L259.526 36.0848C259.626 35.9884 259.77 35.9402 259.866 36.0366C259.962 36.133 260.01 36.2773 259.914 36.3737L256.824 40.5145C256.776 40.5627 256.68 40.6109 256.632 40.6109Z" fill="#EDA895"/>
<path d="M258.467 42.0082C258.419 42.0082 258.371 42.0082 258.323 41.9604C258.223 41.864 258.223 41.7197 258.271 41.6233L261.365 37.8193C261.461 37.7228 261.605 37.7228 261.701 37.771C261.8 37.8193 261.797 38.0118 261.749 38.1082L258.659 41.9122C258.611 42.0086 258.515 42.0082 258.467 42.0082Z" fill="#EDA895"/>
</svg>
